<?xml version="1.0" encoding="iso-8859-1"?>
<!-- Generator: Adobe Illustrator 18.1.1, SVG Export Plug-In . SVG Version: 6.00 Build 0)  -->
<svg version="1.1" id="Capa_1" xmlns="http://www.w3.org/2000/svg" xmlns:xlink="http://www.w3.org/1999/xlink" x="0px" y="0px"
	 viewBox="0 0 288.27 288.27" style="enable-background:new 0 0 288.27 288.27;" xml:space="preserve">
<g>
	<path style="fill:#010002;" d="M23.051,288.27H265.22c12.015,0,21.756-9.741,21.756-21.756V21.756
		C286.976,9.741,277.235,0,265.22,0h-37.796v83.724H55.669V0H23.051C11.036,0,1.294,9.741,1.294,21.756v244.758
		C1.294,278.529,11.036,288.27,23.051,288.27z M49.196,152.511c0-12.015,9.741-21.756,21.756-21.756h147.23
		c12.015,0,21.756,9.741,21.756,21.756v86.813c0,12.015-9.741,21.756-21.756,21.756H70.953c-12.015,0-21.756-9.741-21.756-21.756
		V152.511z"/>
	<path style="fill:#010002;" d="M95.646,234.086h97.838c10.122,0,18.324-8.202,18.324-18.324v-39.678
		c0-10.122-8.202-18.324-18.324-18.324H95.646c-10.122,0-18.324,8.202-18.324,18.324v39.678
		C77.322,225.884,85.524,234.086,95.646,234.086z"/>
	<path style="fill:#010002;" d="M162.264,21.756v24.476c0,12.015,8.523,21.756,19.037,21.756s19.037-9.741,19.037-21.756V21.756
		C200.337,9.741,191.814,0,181.3,0S162.264,9.741,162.264,21.756z"/>
</g>
<g>
</g>
<g>
</g>
<g>
</g>
<g>
</g>
<g>
</g>
<g>
</g>
<g>
</g>
<g>
</g>
<g>
</g>
<g>
</g>
<g>
</g>
<g>
</g>
<g>
</g>
<g>
</g>
<g>
</g>
</svg>
